# xmcd
#
# Track frame offsets:
#	182
#	17667
#	29945
#	47157
#	65315
#	73017
#	87650
#	120952
#	135635
#
# Disc length: 2135 seconds
#
# Revision: 3
# Processed by: cddbd v1.5PL3 Copyright (c) Steve Scherf et al.
# Submitted via: audiograbber 1.83.01
#
DISCID=7e085509
DTITLE=Marvin Gaye - What's Going On
DYEAR=1971
DGENRE=Soul
TTITLE0=What's Going On
TTITLE1=What's Happening Brother
TTITLE2=Flyin' High (In The Friendly Sky)
TTITLE3=Save The Children
TTITLE4=God Is Love
TTITLE5=Mercy, Mercy Me (The Ecology)
TTITLE6=Right On
TTITLE7=Wholy Holy
TTITLE8=Inner City Blues (Make Me Wanna Holler)
EXTD=
EXTT0=
EXTT1=
EXTT2=
EXTT3=
EXTT4=
EXTT5=
EXTT6=
EXTT7=
EXTT8=
PLAYORDER=
